<svg width="105" height="113" viewBox="0 0 105 113" fill="none" xmlns="http://www.w3.org/2000/svg">
<path d="M87.5009 55.125V43.375H104.876V55.125H87.5009Z" fill="black"/>
<path d="M73.6259 0H87.5009V43.375V55.125V113H73.6259V0Z" fill="black"/>
<path fill-rule="evenodd" clip-rule="evenodd" d="M29.3759 8.25C46.3759 8.25 58.6259 23.75 58.7509 48.125C58.6259 72.75 46.3759 88.125 29.3759 88.125C12.2509 88.125 -0.124062 72.75 0.000938471 48.125C-0.124062 23.75 12.2509 8.25 29.3759 8.25ZM13.3759 48.125C13.3759 30.875 19.8759 20.75 29.3759 20.75C39.0009 20.75 45.3759 30.875 45.3759 48.125C45.3759 65.5 39.0009 75.625 29.3759 75.625C19.8759 75.625 13.3759 65.5 13.3759 48.125Z" fill="black"/>
</svg>
