<svg width="93" height="114" viewBox="0 0 93 114" fill="none" xmlns="http://www.w3.org/2000/svg">
<path d="M57.625 41.625H79.125V52.875H57.75L57.625 41.625Z" fill="black"/>
<path d="M79.125 52.875V41.625V0H92.875V113.125H79.125V52.875Z" fill="black"/>
<path d="M0 48.125C0 23.75 12 8.25 29 8.25C44.3125 8.25 55.625 21 57.625 41.625L57.75 52.875C56.25 74.6875 44.75 88.125 29 88.125C12 88.125 0 72.75 0 48.125ZM29 20.75C19.625 20.75 13.25 30.875 13.375 48.125C13.25 65.5 19.625 75.625 29 75.625C38.375 75.625 44.625 65.5 44.75 48.125C44.625 30.875 38.375 20.75 29 20.75Z" fill="black"/>
</svg>
