<svg width="97" height="113" viewBox="0 0 97 113" fill="none" xmlns="http://www.w3.org/2000/svg">
<path d="M49 42.5H59.875V53.75H49.125L49 42.5Z" fill="black"/>
<path d="M96.375 0V113H83V0H96.375Z" fill="black"/>
<path d="M59.875 42.5V2H73.125V107.5H59.875V53.75V42.5Z" fill="black"/>
<path d="M49 42.5L49.125 53.75C47.8125 75.75 38.375 89.375 24.375 89.25C9.625 89.375 0 73.75 0 48.875C0 24 9.625 8.625 24.375 8.625C38.0625 8.625 47.375 21.375 49 42.5ZM24.375 21.75C17.25 21.625 12.75 31.25 12.875 48.875C12.75 66.5 17.25 76.125 24.375 76C31.875 76.125 36.375 66.5 36.375 48.875C36.375 31.25 31.875 21.625 24.375 21.75Z" fill="black"/>
</svg>
