<svg width="104" height="93" viewBox="0 0 104 93" fill="none" xmlns="http://www.w3.org/2000/svg">
<path d="M44.5 81.5H58.25H103.25V92.875H0V81.5H44.5Z" fill="black"/>
<path d="M58.25 81.5H44.5V60.75L58.25 60.75V81.5Z" fill="black"/>
<path d="M9.50001 30.5C9.37501 12.125 27.25 0 51.375 0C75.625 0 93.5 12.125 93.5 30.5C93.5 47.4375 78.9375 58.75 58.25 60.75H44.5C23.9375 58.75 9.37501 47.4375 9.50001 30.5ZM51.375 11.25C34.875 11.125 23 18.625 23.125 30.5C23 42.75 34.875 50 51.375 50C68.125 50 79.875 42.75 79.875 30.5C79.875 18.625 68.125 11.125 51.375 11.25Z" fill="black"/>
</svg>
