<svg width="104" height="109" viewBox="0 0 104 109" fill="none" xmlns="http://www.w3.org/2000/svg">
<path d="M44.5 71.125H58.25V109H44.5V71.125Z" fill="black"/>
<path d="M0 59.625H103.25V71.125H58.25H44.5H0V59.625Z" fill="black"/>
<path d="M51.375 0C75.375 0.125 92.125 9.875 92.125 25.375C92.125 40.75 75.375 50.375 51.375 50.375C27.25 50.375 10.75 40.75 10.875 25.375C10.75 9.875 27.25 0.125 51.375 0ZM51.375 11.25C35.375 11.25 25 16.5 25.125 25.375C25 34.125 35.375 39.375 51.375 39.375C67.375 39.375 77.75 34.125 77.75 25.375C77.75 16.5 67.375 11.25 51.375 11.25Z" fill="black"/>
</svg>
