<svg width="104" height="93" viewBox="0 0 104 93" fill="none" xmlns="http://www.w3.org/2000/svg">
<path d="M103.25 92.375V81H0V92.375H103.25Z" fill="black"/>
<path d="M51.375 0C75.25 0 93.5 12.625 93.5 31.875C93.5 51.375 75.25 64 51.375 64C27.625 64 9.37503 51.375 9.50003 31.875C9.37503 12.625 27.625 0 51.375 0ZM51.375 11.25C35 11.125 22.875 19.375 22.875 31.875C22.875 44.625 35 52.625 51.375 52.625C67.875 52.625 79.875 44.625 79.875 31.875C79.875 19.375 67.875 11.125 51.375 11.25Z" fill="black"/>
</svg>
